<svg xmlns="http://www.w3.org/2000/svg" xmlns:xlink="http://www.w3.org/1999/xlink" viewBox="0 0 140.07 140.07"><defs><style>.cls-1{fill:url(#Безымянный_градиент_5);}.cls-2{fill:url(#Безымянный_градиент_5-2);}.cls-3{fill:url(#Безымянный_градиент_5-3);}</style><linearGradient id="Безымянный_градиент_5" y1="70.03" x2="140.07" y2="70.03" gradientUnits="userSpaceOnUse"><stop offset="0" stop-color="#481261"/><stop offset="1" stop-color="#9e3276"/></linearGradient><linearGradient id="Безымянный_градиент_5-2" x1="61.55" y1="38.2" x2="78.52" y2="38.2" xlink:href="#Безымянный_градиент_5"/><linearGradient id="Безымянный_градиент_5-3" x1="63.67" y1="84.89" x2="76.4" y2="84.89" xlink:href="#Безымянный_градиент_5"/></defs><title>app_info_on</title><g id="Слой_2" data-name="Слой 2"><g id="Слой_1-2" data-name="Слой 1"><path class="cls-1" d="M70,0a70,70,0,1,0,70,70A70.11,70.11,0,0,0,70,0Zm0,127.33A57.3,57.3,0,1,1,127.33,70,57.36,57.36,0,0,1,70,127.33Z"/><path class="cls-2" d="M70,29.71a8.49,8.49,0,1,0,8.49,8.49A8.5,8.5,0,0,0,70,29.71Z"/><path class="cls-3" d="M70,59.42a6.37,6.37,0,0,0-6.37,6.37V104a6.37,6.37,0,1,0,12.73,0V65.79A6.37,6.37,0,0,0,70,59.42Z"/></g></g></svg>