<svg xmlns="http://www.w3.org/2000/svg" viewBox="0 0 140.07 140.07"><defs><style>.cls-1{fill:#fff;}</style></defs><title>app_info_off</title><g id="Слой_2" data-name="Слой 2"><g id="Слой_1-2" data-name="Слой 1"><path class="cls-1" d="M70,0a70,70,0,1,0,70,70A70.11,70.11,0,0,0,70,0Zm0,127.33A57.3,57.3,0,1,1,127.33,70,57.36,57.36,0,0,1,70,127.33Z"/><path class="cls-1" d="M70,29.71a8.49,8.49,0,1,0,8.49,8.49A8.5,8.5,0,0,0,70,29.71Z"/><path class="cls-1" d="M70,59.42a6.37,6.37,0,0,0-6.37,6.37V104a6.37,6.37,0,1,0,12.73,0V65.79A6.37,6.37,0,0,0,70,59.42Z"/></g></g></svg>