<svg height="511pt" fill="#FFFFFF" viewBox="0 -14 511.9991 511" width="511pt" xmlns="http://www.w3.org/2000/svg"><path d="m426.34375 450.332031c.042969 1.40625.28125 2.800781.710938 4.140625 3.394531 10.585938 14.613281 28.507813 35.148437 28.507813s31.757813-17.921875 35.148437-28.507813c.429688-1.339844.667969-2.734375.710938-4.140625l6.402344-218.40625h-84.523438zm0 0"/><path d="m506.78125 152.960938h-89.152344l1.433594 48.964843h86.285156zm0 0"/><path d="m511.957031 54.820312c.488281-8.609374-3.257812-16.765624-10.015625-21.8125-6.414062-4.789062-14.710937-6.042968-22.195312-3.355468l-51.292969 18.421875c-10.417969 3.742187-17.089844 14.300781-16.21875 25.679687l3.765625 49.207032h92.089844zm0 0"/><path d="m230.152344 437.390625c1.328125 25.5625 20.394531 45.589844 43.40625 45.589844 23.003906 0 42.070312-20.023438 43.40625-45.585938l7.742187-148.519531h-102.304687zm0 0"/><path d="m220.835938 258.875h105.4375l2.398437-46.027344h-110.234375zm0 0"/><path d="m273.554688.5c-57.421876 0-87.363282 25.90625-100.101563 41.347656-9.09375 11.023438-11.320313 26.847656-5.664063 40.304688l42.3125 100.695312h126.90625l42.308594-100.695312c5.65625-13.457032 3.433594-29.28125-5.664062-40.304688-12.734375-15.441406-42.675782-41.347656-100.097656-41.347656zm0 0"/><path d="m22.871094 434.523438c.613281 13.484374 5.09375 25.308593 12.964844 34.1875 8.148437 9.199218 19.136718 14.269531 30.9375 14.269531 11.796874 0 22.785156-5.066407 30.9375-14.269531 7.867187-8.882813 12.351562-20.703126 12.964843-34.191407l7.964844-175.449219h-103.730469zm0 0"/><path d="m10.859375 169.773438 2.6875 59.296874h106.453125l2.695312-59.296874zm0 0"/><path d="m133.265625 72.011719c1.378906-11.628907-2.308594-23.097657-10.109375-31.460938-15.921875-17.066406-35.945312-26.464843-56.382812-26.464843-20.433594 0-40.457032 9.398437-56.375 26.464843-7.808594 8.363281-11.492188 19.832031-10.113282 31.460938l8.027344 67.761719h116.929688zm0 0"/></svg>