<?xml version="1.0" encoding="iso-8859-1"?>
<!-- Generator: Adobe Illustrator 16.0.0, SVG Export Plug-In . SVG Version: 6.00 Build 0)  -->
<!DOCTYPE svg PUBLIC "-//W3C//DTD SVG 1.1//EN" "http://www.w3.org/Graphics/SVG/1.1/DTD/svg11.dtd">
<svg version="1.1" id="Capa_1" xmlns="http://www.w3.org/2000/svg" xmlns:xlink="http://www.w3.org/1999/xlink" x="0px" y="0px"
	 width="46.156px" height="46.156px" viewBox="0 0 46.156 46.156" style="enable-background:new 0 0 46.156 46.156;"
	 xml:space="preserve">
<g>
	<path d="M46.085,31.028l-1.951-11.077c-0.198-1.125-1.176-1.961-2.318-1.961h-1.312l-0.497-5.177
		c-0.533-5.549-5.139-9.733-10.713-9.733H16.861c-5.574,0-10.18,4.185-10.713,9.733l-0.497,5.177H4.34
		c-1.142,0-2.12,0.836-2.318,1.961L0.071,31.02c-0.242,1.37,0.144,2.782,1.039,3.849c0.86,1.025,2.112,1.638,3.455,1.684v1.837
		c0,2.603,2.09,4.687,4.691,4.687h1.481c2.601,0,4.709-2.084,4.709-4.687v-1.813h15.263v1.812c0,2.602,2.108,4.688,4.71,4.688H36.9
		c2.602,0,4.69-2.088,4.69-4.688v-1.835c1.342-0.046,2.594-0.651,3.454-1.678C45.94,33.807,46.328,32.399,46.085,31.028z
		 M8.695,32.315c-2.196,0-3.976-1.781-3.976-3.979s1.78-3.977,3.976-3.977c2.196,0,3.977,1.779,3.977,3.977
		S10.891,32.315,8.695,32.315z M9.685,17.99l0.46-4.786c0.334-3.479,3.222-6.097,6.717-6.097h0.706v1.51
		c0,1.304,1.048,2.377,2.352,2.377h6.317c1.305,0,2.353-1.073,2.353-2.377v-1.51h0.706c3.495,0,6.383,2.618,6.717,6.097l0.46,4.786
		H9.685z M37.461,32.315c-2.196,0-3.977-1.781-3.977-3.979s1.78-3.977,3.977-3.977s3.976,1.779,3.976,3.977
		S39.657,32.315,37.461,32.315z"/>
</g>
<g>
</g>
<g>
</g>
<g>
</g>
<g>
</g>
<g>
</g>
<g>
</g>
<g>
</g>
<g>
</g>
<g>
</g>
<g>
</g>
<g>
</g>
<g>
</g>
<g>
</g>
<g>
</g>
<g>
</g>
</svg>
