<svg xmlns="http://www.w3.org/2000/svg" xmlns:xlink="http://www.w3.org/1999/xlink" viewBox="0 0 233.73 233.73"><defs><style>.cls-1{fill:url(#Безымянный_градиент_5);}.cls-2{fill:url(#Безымянный_градиент_5-2);}.cls-3{fill:url(#Безымянный_градиент_5-3);}.cls-4{fill:url(#Безымянный_градиент_5-4);}.cls-5{fill:url(#Безымянный_градиент_5-5);}.cls-6{fill:url(#Безымянный_градиент_5-6);}.cls-7{fill:url(#Безымянный_градиент_5-7);}</style><linearGradient id="Безымянный_градиент_5" y1="116.86" x2="233.73" y2="116.86" gradientUnits="userSpaceOnUse"><stop offset="0" stop-color="#481261"/><stop offset="1" stop-color="#9e3276"/></linearGradient><linearGradient id="Безымянный_градиент_5-2" x1="88.88" y1="154.91" x2="171.84" y2="154.91" xlink:href="#Безымянный_градиент_5"/><linearGradient id="Безымянный_градиент_5-3" x1="88.88" y1="121.1" x2="171.84" y2="121.1" xlink:href="#Безымянный_градиент_5"/><linearGradient id="Безымянный_градиент_5-4" x1="88.88" y1="87.29" x2="171.84" y2="87.29" xlink:href="#Безымянный_градиент_5"/><linearGradient id="Безымянный_градиент_5-5" x1="63.89" y1="87.71" x2="78.36" y2="87.71" xlink:href="#Безымянный_градиент_5"/><linearGradient id="Безымянный_градиент_5-6" x1="63.89" y1="121.1" x2="78.36" y2="121.1" xlink:href="#Безымянный_градиент_5"/><linearGradient id="Безымянный_градиент_5-7" x1="63.89" y1="154.49" x2="78.36" y2="154.49" xlink:href="#Безымянный_градиент_5"/></defs><title>comp_proms_list_on</title><g id="Слой_2" data-name="Слой 2"><g id="Слой_1-2" data-name="Слой 1"><path class="cls-1" d="M116.86,7a109.86,109.86,0,0,1,77.69,187.55A109.86,109.86,0,1,1,39.18,39.18,109.15,109.15,0,0,1,116.86,7m0-7A116.86,116.86,0,1,0,233.73,116.87,116.87,116.87,0,0,0,116.86,0Z"/><path class="cls-2" d="M166.45,160.29H94.27a5.39,5.39,0,0,1,0-10.77h72.18a5.39,5.39,0,0,1,0,10.77Z"/><path class="cls-3" d="M166.45,126.49H94.27a5.39,5.39,0,0,1,0-10.77h72.18a5.39,5.39,0,0,1,0,10.77Z"/><path class="cls-4" d="M166.45,92.68H94.27a5.39,5.39,0,0,1,0-10.77h72.18a5.39,5.39,0,0,1,0,10.77Z"/><circle class="cls-5" cx="71.13" cy="87.71" r="7.23"/><circle class="cls-6" cx="71.13" cy="121.1" r="7.23"/><circle class="cls-7" cx="71.13" cy="154.49" r="7.23"/></g></g></svg>