<svg xmlns="http://www.w3.org/2000/svg" xmlns:xlink="http://www.w3.org/1999/xlink" viewBox="0 0 233.73 233.73"><defs><style>.cls-1{fill:url(#Безымянный_градиент_5);}.cls-2{fill:url(#Безымянный_градиент_5-2);}</style><linearGradient id="Безымянный_градиент_5" y1="116.87" x2="233.73" y2="116.87" gradientUnits="userSpaceOnUse"><stop offset="0" stop-color="#481261"/><stop offset="1" stop-color="#9e3276"/></linearGradient><linearGradient id="Безымянный_градиент_5-2" x1="64.87" y1="116.87" x2="168.87" y2="116.87" xlink:href="#Безымянный_градиент_5"/></defs><title>comp_proms_map_on</title><g id="Слой_2" data-name="Слой 2"><g id="Слой_1-2" data-name="Слой 1"><path class="cls-1" d="M116.87,7a109.87,109.87,0,0,1,77.69,187.55A109.87,109.87,0,0,1,39.18,39.18,109.15,109.15,0,0,1,116.87,7m0-7A116.87,116.87,0,1,0,233.73,116.86,116.87,116.87,0,0,0,116.87,0Z"/><path class="cls-2" d="M115,51.72a52,52,0,0,0-49.2,61.85h0s.08.56.35,1.63a52.12,52.12,0,0,0,3.5,10.32c5.21,12.35,17.27,33,44.31,55.48a4.52,4.52,0,0,0,5.77,0c27-22.45,39.1-43.11,44.34-55.51a49.91,49.91,0,0,0,3.5-10.32c.24-1,.35-1.63.35-1.63h0A52,52,0,0,0,115,51.72Zm1.84,77.83a25.26,25.26,0,1,1,25.26-25.26A25.25,25.25,0,0,1,116.86,129.55Z"/></g></g></svg>