<svg xmlns="http://www.w3.org/2000/svg" xmlns:xlink="http://www.w3.org/1999/xlink" viewBox="0 0 233.73 233.73"><defs><style>.cls-1{fill:url(#Безымянный_градиент_5);}.cls-2{fill:#fff;}</style><linearGradient id="Безымянный_градиент_5" y1="116.86" x2="233.73" y2="116.86" gradientUnits="userSpaceOnUse"><stop offset="0" stop-color="#481261"/><stop offset="1" stop-color="#9e3276"/></linearGradient></defs><title>comp_info_off</title><g id="Слой_2" data-name="Слой 2"><g id="Слой_1-2" data-name="Слой 1"><circle class="cls-1" cx="116.86" cy="116.86" r="116.86"/><path class="cls-2" d="M125.26,50.47c6.4.87,11.06,4.32,13.53,10.17a14.57,14.57,0,0,1-2.66,16.18c-8.71,9.9-25.44,7.24-30.1-4.75-2.76-7.09.11-14.86,7.08-19.22a17.57,17.57,0,0,1,5.94-2.31c.25,0,.57,0,.69-.3h3.83A2,2,0,0,0,125.26,50.47Z"/><path class="cls-2" d="M125.26,50.47a2,2,0,0,1-1.69-.24h1.64A2.36,2.36,0,0,0,125.26,50.47Z"/><path class="cls-2" d="M138.1,175.56l-1.76,7.12a1,1,0,0,1-.66.79c-6,2.22-11.77,5-18,6.25a36.17,36.17,0,0,1-14.82,0C92,187.37,86.45,179.34,87.54,168.38c.78-7.78,3.28-15.12,5.3-22.58,1.92-7.08,4.17-14.07,5.6-21.27a26.78,26.78,0,0,0,.47-7.21c-.33-4.42-2.32-6.37-6.75-6.94s-8.41.44-12.45,1.82l-1.58.54,1.78-7.41a1.16,1.16,0,0,1,.83-.82c6.85-2.58,13.59-5.57,20.95-6.5,5.58-.71,11.13-.5,16.37,1.82,6.83,3,10.56,9.37,10.37,16.84-.18,7.2-2,14-4,20.87-2.23,7.84-4.74,15.61-6.43,23.59-.73,3.42-1.44,6.89-.85,10.43.64,3.84,2.33,5.38,6.18,6,4.56.73,8.88-.15,13.15-1.62l1.16-.41A1.82,1.82,0,0,1,138.1,175.56Z"/></g></g></svg>