<svg xmlns="http://www.w3.org/2000/svg" xmlns:xlink="http://www.w3.org/1999/xlink" viewBox="0 0 233.73 233.73"><defs><style>.cls-1{fill:url(#Безымянный_градиент_5);}.cls-2{fill:#fff;}</style><linearGradient id="Безымянный_градиент_5" y1="116.86" x2="233.73" y2="116.86" gradientUnits="userSpaceOnUse"><stop offset="0" stop-color="#481261"/><stop offset="1" stop-color="#9e3276"/></linearGradient></defs><title>comp_proms_list_off</title><g id="Слой_2" data-name="Слой 2"><g id="Слой_1-2" data-name="Слой 1"><circle class="cls-1" cx="116.86" cy="116.86" r="116.86"/><path class="cls-2" d="M167,156.06H94.86a5.39,5.39,0,0,1,0-10.77H167a5.39,5.39,0,0,1,0,10.77Z"/><path class="cls-2" d="M167,122.25H94.86a5.39,5.39,0,1,1,0-10.77H167a5.39,5.39,0,0,1,0,10.77Z"/><path class="cls-2" d="M167,88.44H94.86a5.39,5.39,0,1,1,0-10.77H167a5.39,5.39,0,0,1,0,10.77Z"/><circle class="cls-2" cx="71.72" cy="83.47" r="7.23"/><circle class="cls-2" cx="71.72" cy="116.86" r="7.23"/><circle class="cls-2" cx="71.72" cy="150.26" r="7.23"/></g></g></svg>