<svg xmlns="http://www.w3.org/2000/svg" viewBox="0 0 175.16 153.99"><defs><style>.cls-1{fill:#fff;}</style></defs><title>favourites</title><g id="Слой_2" data-name="Слой 2"><g id="Слой_1-2" data-name="Слой 1"><path class="cls-1" d="M161,14.3a48.5,48.5,0,0,0-68.59,0l-4.79,4.79-4.86-4.86a48.46,48.46,0,0,0-68.59-.07,48.46,48.46,0,0,0,.07,68.59L84,152.51a5,5,0,0,0,7.06,0l69.89-69.63A48.59,48.59,0,0,0,161,14.3Zm-7.13,61.53-66.36,66.1L21.31,75.72A38.44,38.44,0,1,1,75.68,21.35l8.39,8.39a5,5,0,0,0,7.09,0l8.32-8.32a38.47,38.47,0,0,1,54.4,54.4Z"/></g></g></svg>