<svg xmlns="http://www.w3.org/2000/svg" xmlns:xlink="http://www.w3.org/1999/xlink" viewBox="0 0 292.12 292.15"><defs><style>.cls-1{opacity:0.3;}.cls-2{fill:url(#Безымянный_градиент_9);}</style><linearGradient id="Безымянный_градиент_9" y1="146.08" x2="292.12" y2="146.08" gradientUnits="userSpaceOnUse"><stop offset="0" stop-color="#000000"/><stop offset="1" stop-color="#000000"/></linearGradient></defs><title>footer_button_substrate</title><g id="Слой_2" data-name="Слой 2"><g id="Слой_1-2" data-name="Слой 1"><g class="cls-1"><path class="cls-2" d="M145.7,292c-16.83,0-33.67.27-50.49-.07-23.26-.46-43.45-9.08-60.94-24.22a97.74,97.74,0,0,1-32.62-56A63.8,63.8,0,0,1,0,199c.06-33.66,0-67.33.05-101,.06-28,11.07-51.39,31-70.73C47.19,11.59,66.81,3.2,88.87.1a28.91,28.91,0,0,1,4,0C126.7,0,160.53,0,194.36.08,221.82.17,244.82,10.85,264,30.19c16.09,16.23,24.79,36.05,28,58.48a32.19,32.19,0,0,1,.07,4.49c0,34.16.24,68.33-.07,102.49-.25,27.63-11.53,50.6-31.33,69.54a96.3,96.3,0,0,1-48.7,25.2,65.83,65.83,0,0,1-13.24,1.69C181,292,163.36,292,145.7,292Z"/></g></g></g></svg>