<svg xmlns="http://www.w3.org/2000/svg" viewBox="0 0 308.88 80"><defs><style>.cls-1{fill:#fff;}</style></defs><title>logo_full</title><g id="Слой_2" data-name="Слой 2"><g id="Слой_1-2" data-name="Слой 1"><g id="Слой_2-2" data-name="Слой 2"><g id="Слой_1-2-2" data-name="Слой 1-2"><g id="Лого"><rect class="cls-1" y="73.95" width="129.7" height="1.19"/><rect class="cls-1" x="185.77" y="73.95" width="123.11" height="1.19"/></g><path class="cls-1" d="M292.5,34.73C297,28,301.73,21.31,306.29,14.6h2.59c-.86,1.18-1.6,2.35-2.46,3.53C302.23,24.25,298,30.26,294,36.38a1.69,1.69,0,0,0-.25,1.06V51.33h-2.22V37.56a3.71,3.71,0,0,0-.49-1.65c-4.8-7-9.6-14-14.4-21-.12-.12-.12-.24-.25-.47H279C283.27,21.19,287.83,27.9,292.5,34.73Z"/><path class="cls-1" d="M292.5,0a4.83,4.83,0,0,1,4.92,4.71,4.93,4.93,0,0,1-9.85,0A4.76,4.76,0,0,1,292.38,0Zm-.12,2a3,3,0,0,0-3,2.83,2.85,2.85,0,0,0,2.87,2.83h.13a2.93,2.93,0,0,0,3-2.83A2.78,2.78,0,0,0,292.66,2Z"/><path class="cls-1" d="M253.11,51.33h-2.34V16.6h-14.4v-2h30.16c.37.71.86,1.3,1.23,2H253C253.11,28.26,253.11,39.79,253.11,51.33Z"/><path class="cls-1" d="M220.12,14.6h2.22V51.33h-2.22Z"/><path class="cls-1" d="M185.77,51.33V14.6H188V49.33h22.53c-.37.71-.62,1.41-.86,2Z"/><path class="cls-1" d="M176.54,51.33H174.2c-5.42-11.89-11-23.78-16.62-36-5.66,12.13-11.08,24.13-16.62,36h-2.34c6.28-13.66,12.56-27.2,19-41.21C164,24.13,170.26,37.67,176.54,51.33Z"/><path class="cls-1" d="M111,45.21c.37-.71.62-1.53,1-2.35a9.43,9.43,0,0,1,1.11,1.65,10.74,10.74,0,0,0,9.48,4.71c5-.24,8.37-3.41,9-7.18a6.38,6.38,0,0,0-2.46-6c-2-1.77-4.55-2.83-6.89-4a63,63,0,0,1-5.66-3.18,8,8,0,0,1-2.23-11.09l.23-.33A8.42,8.42,0,0,1,120,13.89a12,12,0,0,1,9.6,1.65,4,4,0,0,1,1.4,1.65c.25.82.49,1.53.74,2.47-.25-.24-.62-.35-.86-.59a16.35,16.35,0,0,0-6-3.18c-3.08-.71-6.4.24-8,2.35-2.34,3.06-1.72,6.95,1.85,9.18a84.92,84.92,0,0,0,7.63,4,15.77,15.77,0,0,1,5.79,4.24A8.69,8.69,0,0,1,131,47.9l0,0c-5.66,5.18-15.63,4.12-19.7-2.24Z"/><path class="cls-1" d="M88.64,33.91h-4.8V51.33h-2.1V14.48h1.11c2.83,0,5.66-.12,8.37.12,5.54.47,8.86,4.12,8.86,9.42S97,32.73,91.72,33.55c-.25,0-.37.12-.74.12,3.82,5.89,7.76,11.66,11.57,17.54H100C96.27,45.56,92.45,39.79,88.64,33.91Zm-4.8-2.24a70.84,70.84,0,0,0,7.14,0c4.19-.35,6.4-2.59,6.89-6.59A7.26,7.26,0,0,0,92.58,17a21.16,21.16,0,0,0-3.94-.47c-1.6-.12-3.2,0-4.8,0Z"/><path class="cls-1" d="M72.39,49.45c-.25.71-.49,1.3-.74,2H46.41c.25-.71.62-1.3.86-2Z"/><path class="cls-1" d="M46.17,16.6c.25-.71.49-1.3.74-2h25s-.62,1.3-.86,2Z"/><path class="cls-1" d="M47,33.91c-.25-.59-.49-1.18-.74-1.88h21.3c.25.59.62,1.18.86,1.88Z"/><path class="cls-1" d="M39.64,14.72H37.3c-5.54,11.89-11,23.78-16.62,35.91C15,38.5,9.6,26.61,4.06,14.6H1.72C8,28.26,14.28,41.8,20.72,55.69,27.08,41.79,33.36,28.26,39.64,14.72Z"/><path class="cls-1" d="M145.68,68.84v1.64a5.48,5.48,0,0,0-1.55-1.11,4.9,4.9,0,0,0-2.05-.46,4.51,4.51,0,0,0-3.41,1.44,4.92,4.92,0,0,0-1.36,3.52,4.47,4.47,0,0,0,1.49,3.55,4.9,4.9,0,0,0,3.31,1.3,4.76,4.76,0,0,0,2.21-.55,5.27,5.27,0,0,0,1.37-1v1.64A6,6,0,0,1,142.1,80a6.2,6.2,0,0,1-4.38-10.54,6,6,0,0,1,4.45-1.77A5.66,5.66,0,0,1,145.68,68.84Z"/><path class="cls-1" d="M149.17,67.86h1.32V78.5h3.28v1.25h-4.6Z"/><path class="cls-1" d="M157.95,67.86V76.2a3.08,3.08,0,0,0,.25.92,2.33,2.33,0,0,0,.67.92,3.18,3.18,0,0,0,3.92,0,2.34,2.34,0,0,0,.67-.92,3.1,3.1,0,0,0,.25-.92V67.86H165v7.65a4.78,4.78,0,0,1-.75,2.85,3.8,3.8,0,0,1-1.45,1.18,5,5,0,0,1-4,0,3.79,3.79,0,0,1-1.45-1.18,4.78,4.78,0,0,1-.75-2.85V67.86Z"/><path class="cls-1" d="M169.21,67.86h2.14a4.31,4.31,0,0,1,2.73.75,2.91,2.91,0,0,1,1.07,2.46A2.65,2.65,0,0,1,174,73.4a2.72,2.72,0,0,1,1.7,1.15,3.33,3.33,0,0,1,.56,1.85,3.2,3.2,0,0,1-.35,1.48A3.25,3.25,0,0,1,175,79a4.53,4.53,0,0,1-2.85.78h-3Zm1.32,1.25v4h1.52a3,3,0,0,0,.6-.14,2.08,2.08,0,0,0,.61-.31,1.5,1.5,0,0,0,.44-.59,2.18,2.18,0,0,0,.18-.91,2,2,0,0,0-.21-1,1.75,1.75,0,0,0-.48-.6,2,2,0,0,0-.64-.3,3.38,3.38,0,0,0-.57-.12h-.39Zm0,5.15V78.5H172a3.43,3.43,0,0,0,2.09-.5,1.9,1.9,0,0,0,.78-1.64,1.85,1.85,0,0,0-1-1.75,4.32,4.32,0,0,0-2-.36Z"/></g></g></g></g></svg>