<svg xmlns="http://www.w3.org/2000/svg" viewBox="0 0 217.89 217.03"><defs><style>.cls-1{fill:none;stroke:#fff;stroke-miterlimit:10;stroke-width:2px;}</style></defs><title>logo</title><g id="Слой_2" data-name="Слой 2"><g id="Слой_1-2" data-name="Слой 1"><g id="Слой_2-2" data-name="Слой 2"><g id="Слой_1-2-2" data-name="Слой 1-2"><g id="Слой_2-2-2" data-name="Слой 2-2"><g id="Слой_1-2-2-2" data-name="Слой 1-2-2"><path class="cls-1" d="M172.8,97.06H157.62c-2.88,0-5.76,0-8.64-.11a6.41,6.41,0,0,0-6.45,3.61q-16.66,29.2-33.74,58.16c-.27.47-.56.92-.93,1.53-1.67-2.83-3.27-5.54-4.85-8.25L73.28,100.92a6.87,6.87,0,0,0-6.59-3.87c-7.64.12-15.28,0-22.92,0h-.89c.85,1.6,1.61,3.12,2.46,4.58l48,82.69a15.25,15.25,0,0,1,2.13,7.75q0,11.34.13,22.68c0,.87-.18,1-1.06.91-39.07-5-72.92-32-86.74-69.25C-14.45,86.61,19.86,20.75,81.7,4.52,140.14-10.81,200.21,25.4,214,84.24A107.77,107.77,0,0,1,121.24,216c-.76.09-1,0-1-.83.05-7.92.05-15.84.09-23.76a13.33,13.33,0,0,1,2-6.68q21.13-36.43,42.22-72.88c2.62-4.52,5.39-9,7.74-13.63A12.28,12.28,0,0,1,172.8,97.06ZM107.88,48.31a18,18,0,1,0,18,18h0A18,18,0,0,0,107.88,48.31Z"/></g></g></g></g></g></g></svg>