<svg xmlns="http://www.w3.org/2000/svg" viewBox="0 0 168.7 211.45"><defs><style>.cls-1{fill:#fff;}</style></defs><title>on_map</title><g id="Слой_2" data-name="Слой 2"><g id="Слой_1-2" data-name="Слой 1"><path class="cls-1" d="M81.34.05A84.38,84.38,0,0,0,1.53,100.37h0s.13.91.56,2.64a84.55,84.55,0,0,0,5.68,16.73c8.45,20,28,53.54,71.88,90a7.33,7.33,0,0,0,9.36,0c43.87-36.42,63.43-69.93,71.92-90A81,81,0,0,0,166.62,103c.39-1.69.56-2.64.56-2.64h0A84.4,84.4,0,0,0,81.34.05Zm3,126.25a41,41,0,1,1,41-41A41,41,0,0,1,84.33,126.3Z"/></g></g></svg>