<?xml version="1.0" encoding="utf-8"?>
<!-- Generator: Adobe Illustrator 21.0.2, SVG Export Plug-In . SVG Version: 6.00 Build 0)  -->
<svg version="1.1" id="Capa_1" xmlns="http://www.w3.org/2000/svg" xmlns:xlink="http://www.w3.org/1999/xlink" x="0px" y="0px"
	 viewBox="0 0 487.7 487.7" style="enable-background:new 0 0 487.7 487.7;" xml:space="preserve">
<style type="text/css">
	.st0{fill:#4E1563;}
</style>
<g>
	<g>
		<path class="st0" d="M236.9,0.1C140,3.5,59.5,79.1,50.2,175.6c-1.9,19.3-0.8,38,2.6,55.9l0,0c0,0,0.3,2.1,1.3,6.1
			c3,13.4,7.5,26.4,13.1,38.6c19.5,46.2,64.6,123.5,165.8,207.6c6.2,5.2,15.3,5.2,21.6,0c101.2-84,146.3-161.3,165.9-207.7
			c5.7-12.2,10.1-25.1,13.1-38.6c0.9-3.9,1.3-6.1,1.3-6.1l0,0c2.3-12,3.5-24.3,3.5-36.9C438.4,84.7,347.5-3.8,236.9,0.1z"/>
	</g>
</g>
</svg>