<svg xmlns="http://www.w3.org/2000/svg" xmlns:xlink="http://www.w3.org/1999/xlink" viewBox="0 0 143.14 147.35"><defs><style>.cls-1{fill:url(#Безымянный_градиент_5);}.cls-2{fill:url(#Безымянный_градиент_5-2);}.cls-3{fill:url(#Безымянный_градиент_5-3);}</style><linearGradient id="Безымянный_градиент_5" x1="50.71" y1="73.66" x2="92.74" y2="73.66" gradientUnits="userSpaceOnUse"><stop offset="0" stop-color="#481261"/><stop offset="1" stop-color="#9e3276"/></linearGradient><linearGradient id="Безымянный_градиент_5-2" x1="0" y1="73.66" x2="42.03" y2="73.66" xlink:href="#Безымянный_градиент_5"/><linearGradient id="Безымянный_градиент_5-3" x1="101.11" y1="73.67" x2="143.14" y2="73.67" xlink:href="#Безымянный_градиент_5"/></defs><title>settings_help</title><g id="Слой_2" data-name="Слой 2"><g id="Слой_1-2" data-name="Слой 1"><path class="cls-1" d="M75.87,71.82V4.14a4.14,4.14,0,1,0-8.28,0V71.82a21,21,0,0,0,0,41.23v30.13a4.14,4.14,0,0,0,8.28,0V113a21,21,0,0,0,0-41.23Zm-4.14,33.35A12.73,12.73,0,1,1,84.46,92.43,12.74,12.74,0,0,1,71.72,105.16Z"/><path class="cls-2" d="M25.16,37.09V4.14a4.14,4.14,0,1,0-8.28,0V37.09a21,21,0,0,0,0,41.23v64.85a4.14,4.14,0,0,0,8.28,0V78.29a21,21,0,0,0,0-41.2ZM21,70.44A12.73,12.73,0,1,1,33.75,57.7,12.74,12.74,0,0,1,21,70.44Z"/><path class="cls-3" d="M126.27,37.09V4.14a4.14,4.14,0,0,0-8.28,0V37.09a21,21,0,0,0,0,41.23V143.2a4.14,4.14,0,0,0,8.28,0V78.29a21,21,0,0,0,0-41.2Zm-4.14,33.35A12.73,12.73,0,1,1,134.86,57.7,12.74,12.74,0,0,1,122.13,70.44Z"/></g></g></svg>