<svg xmlns="http://www.w3.org/2000/svg" viewBox="0 0 160 120.44"><defs><style>.cls-1{fill:#fff;}</style></defs><title>show_listview</title><g id="Слой_2" data-name="Слой 2"><g id="Слой_1-2" data-name="Слой 1"><path class="cls-1" d="M152,118.31H45a8,8,0,0,1,0-16H152a8,8,0,0,1,0,16Z"/><path class="cls-1" d="M152,68.2H45a8,8,0,0,1,0-16H152a8,8,0,0,1,0,16Z"/><path class="cls-1" d="M152,18.09H45a8,8,0,0,1,0-16H152a8,8,0,0,1,0,16Z"/><circle class="cls-1" cx="10.72" cy="10.72" r="10.72"/><circle class="cls-1" cx="10.72" cy="60.22" r="10.72"/><circle class="cls-1" cx="10.72" cy="109.71" r="10.72"/></g></g></svg>