<svg xmlns="http://www.w3.org/2000/svg" viewBox="0 0 252.98 252.97"><defs><style>.cls-1{fill:#ffffff;}.cls-2{fill:#ffffff;}</style></defs><title>tick</title><g id="Слой_2" data-name="Слой 2"><g id="Слой_1-2" data-name="Слой 1"><path class="cls-1" d="M125.67,253C55.83,252.81-.2,196.05,0,125.66.2,56.08,57.36-.24,127.57,0S253.29,57.24,253,128.77C252.68,197.72,195.88,253.13,125.67,253ZM127,231.77c57.91-.15,105-47.47,104.84-105.27A105.21,105.21,0,1,0,127,231.77Z"/><path class="cls-2" d="M112.56,170.95c-4,.23-6.75-2-9.39-4.69Q89.09,152,74.85,138c-5.35-5.26-7.33-11.1-1.65-16.89,5.89-6,11.69-3.31,16.81,1.86.85.86,1.67,1.77,2.59,2.56,7,6,12.21,18,20.25,17.43,6.78-.46,12.94-11.08,19.24-17.33Q148.89,109,165.55,92.15c5.56-5.59,11.59-10,18.61-2.77,6.52,6.73,2.29,12.44-3,17.68q-29.22,29.11-58.36,58.3C119.93,168.27,117.08,171.1,112.56,170.95Z"/></g></g></svg>