<svg xmlns="http://www.w3.org/2000/svg" xmlns:xlink="http://www.w3.org/1999/xlink" viewBox="0 0 509.69 888.65"><defs><style>.cls-1{fill:url(#Безымянный_градиент_5);}.cls-2{fill:url(#Безымянный_градиент_5-2);}</style><linearGradient id="Безымянный_градиент_5" x1="45" y1="201.32" x2="447.65" y2="201.32" gradientUnits="userSpaceOnUse"><stop offset="0" stop-color="#85296f"/><stop offset="1" stop-color="#5a215c"/></linearGradient><linearGradient id="Безымянный_градиент_5-2" x1="0" y1="634.8" x2="509.69" y2="634.8" xlink:href="#Безымянный_градиент_5"/></defs><title>Me_Icon</title><g id="Слой_2" data-name="Слой 2"><g id="Слой_1-2" data-name="Слой 1"><path class="cls-1" d="M442.54,397.53a17.44,17.44,0,0,0,3.26-20.13L261.92,9.64a17.44,17.44,0,0,0-31.19,0L46.85,377.4A17.43,17.43,0,0,0,70.24,400.8l176.09-88,176.08,88a17.44,17.44,0,0,0,20.13-3.27Z"/><g id="Слой_2-2" data-name="Слой 2"><g id="Слой_1-2-2" data-name="Слой 1-2"><path class="cls-2" d="M405.64,607.76H369.8c-6.8,0-13.6,0-20.4-.26A15.13,15.13,0,0,0,334.17,616Q294.84,685,254.51,753.34c-.64,1.11-1.32,2.17-2.2,3.61-3.94-6.68-7.72-13.08-11.45-19.48q-35.11-60.3-70.19-120.6a16.22,16.22,0,0,0-15.56-9.14c-18,.28-36.08,0-54.12,0h-2.1c2,3.78,3.8,7.37,5.81,10.81L218,813.79a36,36,0,0,1,5,18.3q0,26.77.31,53.55c0,2.05-.42,2.36-2.5,2.15C128.62,876,48.7,812.23,16.07,724.28c-52.53-141.19,28.47-296.69,174.48-335,138-36.2,279.81,49.3,312.32,188.22,32.18,136.8-52.63,273.78-189.42,306a254.46,254.46,0,0,1-29.54,5.13c-1.79.21-2.36,0-2.36-2,.12-18.7.12-37.4.21-56.1a31.47,31.47,0,0,1,4.72-15.77q49.89-86,99.68-172.07c6.19-10.67,12.73-21.25,18.27-32.18A29,29,0,0,1,405.64,607.76ZM252.36,492.66a42.5,42.5,0,1,0,42.5,42.5h0A42.5,42.5,0,0,0,252.36,492.66Z"/></g></g></g></g></svg>