<svg xmlns="http://www.w3.org/2000/svg" viewBox="0 0 412 412"><defs><style>.cls-1{fill:#ac3879;}.cls-2{fill:#3d245c;}</style></defs><title>Me</title><g id="Слой_2" data-name="Слой 2"><g id="Слой_1-2" data-name="Слой 1"><path class="cls-1" d="M273.59,273.59l-40.31-86.38-46.06,46.07Zm0,0"/><path class="cls-1" d="M206,412c113.59,0,206-92.41,206-206S319.59,0,206,0,0,92.41,0,206,92.41,412,206,412Zm0-382c97,0,176,79,176,176S303,382,206,382,30,303,30,206,109,30,206,30Zm0,0"/><path class="cls-1" d="M224.79,178.72l-86.37-40.31,40.31,86.38Zm0,0"/><path class="cls-2" d="M89.58,212H42.12c3.1,85.67,72.21,154.78,157.88,157.88V322.42a6,6,0,0,1,12,0v47.46c85.67-3.1,154.78-72.21,157.88-157.88H322.42a6,6,0,0,1,0-12h47.46C366.78,114.33,297.67,45.22,212,42.12V89.58a6,6,0,1,1-12,0V42.12C114.33,45.22,45.22,114.33,42.12,200H89.58a6,6,0,0,1,0,12Zm32.18-90.24a6,6,0,0,1,6.78-1.2l109.09,50.91a6,6,0,0,1,2.89,2.9h0l50.91,109.09a6,6,0,0,1-8,8L174.37,240.53a6,6,0,0,1-2.9-2.9L120.56,128.54a6,6,0,0,1,1.2-6.78Zm0,0"/></g></g></svg>